<svg version="1" xmlns="http://www.w3.org/2000/svg" width="200" height="200" viewBox="0 0 150.000000 150.000000"><path d="M57.5 5.5C41.3 9.6 26.9 18.8 17.4 31.1 12.9 37 7.6 46.7 5.8 52.5c-3.9 12.2-4.4 28.3-1.4 40 4.9 18.7 19 36.3 36.1 45.3 18.3 9.7 40.9 10.8 60.5 3 20.3-8.1 37.5-28 42.5-49.2 1.9-7.8 1.9-25.3 0-33.1-6-25.4-25.4-45.2-51.5-52.4-8.7-2.4-26.1-2.7-34.5-.6zm-30 40.3l.1 17.7 13 .5c9.7.4 13.1.2 13.7-.7.6-1 5.7-1.3 20.2-1.3 18.4 0 19.5.1 20.5 2 .9 1.7 1.4 1.8 3.2.9 1.1-.6 6-1 11.2-.9 5 .1 9.7.2 10.4.1.9-.1 1.2-4.6 1.2-18.7 0-16.1.2-18.5 1.4-17.5.8.7 1.9 3.1 2.4 5.4 1 4.3 6.7 25.9 10.1 38.2 1.1 3.8 1.7 7.3 1.5 7.7-.8 1.2-33.2 1-35.4-.2-1.7-.9-1.9-.7-1.8 1.7.1 2.3-9.9 51.2-11.8 57.5-.5 1.6-2 1.8-12.3 1.8-8.3 0-12.2-.4-12.9-1.3-.5-.6-1.9-5.7-3.1-11.2-1.1-5.5-3.9-18.3-6.1-28.4-2.2-10.1-3.8-18.6-3.6-19 .2-.3-8-.6-18.2-.6-18.1 0-18.7-.1-18.6-2 .1-1.1 2-9.2 4.4-18 2.3-8.8 5-19.2 6-23.2 3.6-14.3 4.3-12.6 4.5 9.5zm68.2 87.7c.3.9.3 1.9-.1 2.2-.8.9-3.7-1.8-3-2.8.8-1.4 2.4-1.1 3.1.6z"/></svg>