<?xml version="1.0" standalone="no"?>
<!DOCTYPE svg PUBLIC "-//W3C//DTD SVG 20010904//EN"
 "http://www.w3.org/TR/2001/REC-SVG-20010904/DTD/svg10.dtd">
<svg version="1.0" xmlns="http://www.w3.org/2000/svg"
 width="559.000000pt" height="559.000000pt" viewBox="0 0 559.000000 559.000000"
 preserveAspectRatio="xMidYMid meet">
<metadata>
Created by potrace 1.14, written by Peter Selinger 2001-2017
</metadata>
<g transform="translate(0.000000,559.000000) scale(0.100000,-0.100000)"
fill="#000000" stroke="none">
<path d="M2525 5579 c-516 -50 -1024 -251 -1445 -575 -132 -102 -364 -329
-464 -454 -317 -398 -517 -860 -593 -1375 -25 -169 -25 -581 0 -750 76 -515
276 -977 593 -1375 100 -125 332 -352 464 -454 1018 -783 2412 -783 3430 0
132 102 364 329 464 454 317 398 517 860 593 1375 25 169 25 581 0 750 -76
515 -276 977 -593 1375 -100 125 -332 352 -464 454 -429 329 -930 526 -1465
576 -128 12 -390 11 -520 -1z m-770 -606 c-17 -45 -65 -237 -81 -323 -24 -131
-24 -362 -1 -449 37 -135 121 -245 231 -300 143 -70 306 -77 716 -31 146 17
427 48 625 71 632 70 614 68 671 95 66 31 126 98 155 173 37 93 38 321 3 481
-9 40 63 -82 127 -215 106 -222 140 -404 108 -581 -24 -135 -130 -294 -254
-379 -30 -21 -54 -44 -52 -49 24 -63 97 -269 544 -1541 52 -148 114 -326 139
-395 24 -69 44 -130 44 -135 0 -6 -37 -29 -83 -53 -45 -23 -212 -109 -370
-191 l-288 -148 -257 147 c-141 81 -435 247 -652 371 -299 169 -409 236 -451
277 -58 54 -109 136 -128 207 -6 22 -18 177 -26 345 -9 168 -22 429 -30 580
-8 151 -15 292 -15 312 0 42 20 36 -195 58 -228 23 -412 73 -570 153 -187 96
-318 260 -360 451 -21 93 -16 252 10 351 55 207 189 447 365 653 71 82 88 97
75 65z m-323 -1803 c127 -97 375 -196 618 -246 69 -15 127 -28 130 -31 3 -3 8
-233 11 -511 5 -487 6 -509 27 -565 34 -92 81 -166 141 -224 31 -30 177 -131
331 -229 151 -97 276 -177 278 -179 2 -2 -4 -40 -13 -86 -31 -154 -30 -571 1
-728 l7 -33 -219 5 c-236 5 -355 20 -544 67 -878 219 -1573 914 -1790 1788
l-23 93 84 85 c111 113 579 558 699 666 90 80 197 168 206 168 2 0 27 -18 56
-40z m-990 -529 c46 -51 35 -131 -22 -164 -63 -38 -150 -8 -168 57 -14 49 -4
82 36 117 31 28 40 31 81 26 34 -4 52 -12 73 -36z"/>
<path d="M3225 3033 c47 -112 133 -207 248 -276 76 -45 290 -122 295 -106 3 8
-113 337 -122 346 -2 3 -419 73 -430 73 -4 0 1 -17 9 -37z"/>
<path d="M300 2630 c-24 -24 -27 -86 -5 -117 21 -29 66 -38 103 -19 48 25 57
84 21 130 -26 33 -88 37 -119 6z m96 -14 c16 -12 17 -18 7 -34 -7 -12 -8 -24
-2 -33 13 -21 11 -39 -5 -39 -7 0 -16 9 -19 20 -7 27 -37 26 -37 -1 0 -12 -5
-19 -12 -17 -18 6 -23 99 -6 109 20 13 52 11 74 -5z"/>
<path d="M345 2600 c-9 -15 4 -30 20 -23 8 3 15 9 15 13 0 12 -29 20 -35 10z"/>
</g>
</svg>
